<svg xmlns="http://www.w3.org/2000/svg" version="1.1" xmlns:xlink="http://www.w3.org/1999/xlink" xmlns:svgjs="http://svgjs.dev/svgjs" width="1500" height="1500" viewBox="0 0 1500 1500"><rect width="1500" height="1500" fill="#000000"></rect><g transform="matrix(0.6666666666666666,0,0,0.6666666666666666,249.21328698825113,176.82365591397854)"><svg viewBox="0 0 217 248" data-background-color="#ffffff" preserveAspectRatio="xMidYMid meet" height="1714" width="1500" xmlns="http://www.w3.org/2000/svg" xmlns:xlink="http://www.w3.org/1999/xlink"><g id="tight-bounds" transform="matrix(1,0,0,1,0.1707167235495035,0.4000000000000057)"><svg viewBox="0 0 216.65856655290102 247.2" height="247.2" width="216.65856655290102"><g><svg viewBox="0 0 216.65856655290102 247.2" height="247.2" width="216.65856655290102"><g><svg viewBox="0 0 216.65856655290102 247.2" height="247.2" width="216.65856655290102"><g id="textblocktransform"><svg viewBox="0 0 216.65856655290102 247.2" height="247.2" width="216.65856655290102" id="textblock"><g><svg viewBox="0 0 216.65856655290102 247.2" height="247.2" width="216.65856655290102"><g transform="matrix(1,0,0,1,0,0)"><svg width="216.65856655290102" viewBox="-0.37 -35.77 31.35 35.77" height="247.2" data-palette-color="#585858"><path d="M18.65 0L12.01 0 12.01-14.18-0.37-35.77 6.81-35.77 15.33-20.29 23.9-35.77 30.98-35.77 18.65-14.31 18.65 0Z" opacity="1" transform="matrix(1,0,0,1,0,0)" fill="#ffffff" class="wordmark-text-0" data-fill-palette-color="primary" id="text-0"></path></svg></g></svg></g></svg></g></svg></g><g></g></svg></g><defs></defs></svg><rect width="216.65856655290102" height="247.2" fill="none" stroke="none" visibility="hidden"></rect></g></svg></g></svg>